<?xml version="1.0" encoding="UTF-8"?>
<svg xmlns="http://www.w3.org/2000/svg" version="1.1" width="300" height="300" viewBox="0 0 300 300"><rect x="0" y="0" width="300" height="300" fill="#ffffff"/><g transform="scale(5.263)"><g transform="translate(0,0)"><path fill-rule="evenodd" d="M10 0L10 1L11 1L11 0ZM15 0L15 2L14 2L14 3L15 3L15 5L14 5L14 4L13 4L13 3L12 3L12 4L11 4L11 5L10 5L10 7L9 7L9 6L8 6L8 7L9 7L9 8L10 8L10 9L11 9L11 10L9 10L9 9L8 9L8 8L6 8L6 9L5 9L5 8L3 8L3 9L5 9L5 10L6 10L6 11L4 11L4 16L5 16L5 18L3 18L3 16L2 16L2 15L3 15L3 10L2 10L2 9L0 9L0 10L2 10L2 15L1 15L1 12L0 12L0 15L1 15L1 16L0 16L0 18L1 18L1 17L2 17L2 18L3 18L3 19L1 19L1 20L0 20L0 22L1 22L1 20L3 20L3 19L4 19L4 21L2 21L2 24L1 24L1 23L0 23L0 26L1 26L1 25L2 25L2 24L4 24L4 23L3 23L3 22L5 22L5 24L6 24L6 25L8 25L8 26L5 26L5 25L3 25L3 27L4 27L4 29L3 29L3 28L2 28L2 27L1 27L1 29L0 29L0 31L2 31L2 32L1 32L1 33L2 33L2 34L1 34L1 35L2 35L2 36L0 36L0 37L2 37L2 38L5 38L5 37L8 37L8 36L5 36L5 35L7 35L7 34L6 34L6 33L7 33L7 32L5 32L5 33L4 33L4 36L5 36L5 37L3 37L3 32L4 32L4 31L9 31L9 32L10 32L10 34L9 34L9 33L8 33L8 34L9 34L9 35L10 35L10 36L9 36L9 37L10 37L10 36L11 36L11 35L10 35L10 34L12 34L12 35L13 35L13 36L12 36L12 37L11 37L11 38L10 38L10 39L9 39L9 38L8 38L8 39L7 39L7 38L6 38L6 39L4 39L4 40L2 40L2 39L1 39L1 38L0 38L0 44L1 44L1 42L2 42L2 43L3 43L3 42L2 42L2 41L4 41L4 43L7 43L7 42L6 42L6 41L8 41L8 39L9 39L9 43L8 43L8 44L5 44L5 45L7 45L7 46L5 46L5 47L3 47L3 46L2 46L2 47L1 47L1 45L0 45L0 48L5 48L5 47L8 47L8 48L9 48L9 49L8 49L8 51L9 51L9 50L10 50L10 48L9 48L9 47L10 47L10 46L9 46L9 45L8 45L8 44L11 44L11 45L12 45L12 44L13 44L13 43L14 43L14 44L15 44L15 43L14 43L14 42L16 42L16 41L17 41L17 40L18 40L18 38L17 38L17 37L18 37L18 36L19 36L19 35L20 35L20 34L21 34L21 35L22 35L22 33L23 33L23 32L25 32L25 33L26 33L26 32L25 32L25 31L28 31L28 32L29 32L29 33L30 33L30 34L28 34L28 33L27 33L27 34L26 34L26 35L25 35L25 34L24 34L24 35L23 35L23 36L22 36L22 38L20 38L20 39L21 39L21 40L22 40L22 41L23 41L23 40L24 40L24 42L25 42L25 41L26 41L26 40L27 40L27 39L28 39L28 38L29 38L29 40L30 40L30 41L31 41L31 42L32 42L32 44L31 44L31 43L29 43L29 41L28 41L28 45L29 45L29 48L28 48L28 47L27 47L27 48L26 48L26 46L27 46L27 45L26 45L26 46L25 46L25 44L27 44L27 43L25 43L25 44L23 44L23 43L22 43L22 42L19 42L19 43L18 43L18 44L16 44L16 46L15 46L15 47L14 47L14 46L12 46L12 47L11 47L11 48L12 48L12 47L14 47L14 49L13 49L13 50L12 50L12 49L11 49L11 51L10 51L10 53L11 53L11 54L9 54L9 52L8 52L8 54L9 54L9 56L10 56L10 57L12 57L12 56L13 56L13 57L14 57L14 56L16 56L16 55L17 55L17 54L18 54L18 56L17 56L17 57L18 57L18 56L19 56L19 55L20 55L20 57L23 57L23 56L25 56L25 57L26 57L26 56L27 56L27 57L28 57L28 56L30 56L30 57L32 57L32 56L33 56L33 57L39 57L39 56L38 56L38 55L41 55L41 56L42 56L42 55L41 55L41 54L43 54L43 55L46 55L46 54L47 54L47 56L45 56L45 57L47 57L47 56L48 56L48 57L52 57L52 56L53 56L53 54L51 54L51 55L50 55L50 54L47 54L47 53L53 53L53 50L55 50L55 51L54 51L54 52L55 52L55 53L56 53L56 52L55 52L55 51L56 51L56 49L57 49L57 48L56 48L56 49L53 49L53 48L55 48L55 47L53 47L53 48L51 48L51 47L52 47L52 46L53 46L53 44L55 44L55 41L54 41L54 43L53 43L53 44L52 44L52 45L50 45L50 43L52 43L52 42L53 42L53 40L51 40L51 39L53 39L53 38L54 38L54 40L55 40L55 38L56 38L56 37L57 37L57 36L55 36L55 35L54 35L54 34L53 34L53 33L52 33L52 34L51 34L51 33L49 33L49 34L48 34L48 33L47 33L47 32L48 32L48 31L52 31L52 32L54 32L54 33L55 33L55 34L56 34L56 35L57 35L57 34L56 34L56 33L55 33L55 31L56 31L56 32L57 32L57 27L56 27L56 25L57 25L57 24L55 24L55 23L57 23L57 22L55 22L55 21L54 21L54 22L53 22L53 20L55 20L55 18L54 18L54 16L55 16L55 15L56 15L56 14L54 14L54 15L53 15L53 13L54 13L54 12L55 12L55 11L56 11L56 13L57 13L57 10L55 10L55 8L53 8L53 9L47 9L47 8L49 8L49 6L48 6L48 7L47 7L47 5L48 5L48 0L45 0L45 1L43 1L43 0L41 0L41 1L43 1L43 2L42 2L42 3L44 3L44 4L45 4L45 3L47 3L47 5L44 5L44 7L43 7L43 6L42 6L42 7L43 7L43 8L41 8L41 5L43 5L43 4L41 4L41 3L40 3L40 4L41 4L41 5L39 5L39 3L38 3L38 5L37 5L37 4L36 4L36 5L35 5L35 4L34 4L34 3L33 3L33 2L32 2L32 0L29 0L29 1L28 1L28 0L27 0L27 1L28 1L28 2L26 2L26 1L25 1L25 2L24 2L24 1L22 1L22 0L21 0L21 1L22 1L22 2L21 2L21 4L19 4L19 3L20 3L20 2L19 2L19 1L20 1L20 0L19 0L19 1L18 1L18 0L17 0L17 1L18 1L18 3L17 3L17 2L16 2L16 0ZM35 0L35 1L34 1L34 2L35 2L35 1L37 1L37 2L38 2L38 1L40 1L40 0L38 0L38 1L37 1L37 0ZM12 1L12 2L13 2L13 1ZM30 1L30 2L31 2L31 1ZM46 1L46 2L47 2L47 1ZM8 2L8 4L10 4L10 2ZM15 2L15 3L16 3L16 4L17 4L17 3L16 3L16 2ZM22 2L22 3L23 3L23 4L25 4L25 3L26 3L26 4L27 4L27 3L26 3L26 2L25 2L25 3L23 3L23 2ZM28 3L28 4L30 4L30 3ZM32 3L32 4L31 4L31 5L33 5L33 7L32 7L32 6L31 6L31 7L32 7L32 8L33 8L33 9L30 9L30 11L29 11L29 9L28 9L28 10L27 10L27 11L28 11L28 12L24 12L24 13L25 13L25 15L24 15L24 16L23 16L23 17L22 17L22 15L23 15L23 12L22 12L22 11L23 11L23 10L24 10L24 11L25 11L25 10L24 10L24 9L23 9L23 8L24 8L24 6L25 6L25 8L26 8L26 5L19 5L19 7L18 7L18 5L17 5L17 7L16 7L16 6L15 6L15 7L14 7L14 6L13 6L13 4L12 4L12 5L11 5L11 7L10 7L10 8L11 8L11 7L12 7L12 8L13 8L13 7L14 7L14 9L13 9L13 10L12 10L12 11L14 11L14 12L13 12L13 13L10 13L10 12L9 12L9 10L8 10L8 9L6 9L6 10L7 10L7 11L6 11L6 12L5 12L5 16L7 16L7 17L6 17L6 18L5 18L5 21L6 21L6 22L8 22L8 23L9 23L9 24L8 24L8 25L10 25L10 23L11 23L11 22L12 22L12 20L11 20L11 19L13 19L13 21L14 21L14 19L13 19L13 17L12 17L12 18L11 18L11 19L10 19L10 20L11 20L11 22L10 22L10 21L9 21L9 20L8 20L8 21L6 21L6 20L7 20L7 19L6 19L6 18L7 18L7 17L8 17L8 16L7 16L7 15L6 15L6 14L7 14L7 13L8 13L8 14L11 14L11 15L10 15L10 16L9 16L9 18L8 18L8 19L9 19L9 18L10 18L10 16L11 16L11 15L12 15L12 14L14 14L14 13L16 13L16 14L15 14L15 15L13 15L13 16L14 16L14 17L15 17L15 15L16 15L16 16L17 16L17 15L18 15L18 17L19 17L19 18L17 18L17 17L16 17L16 18L15 18L15 19L16 19L16 20L15 20L15 22L16 22L16 23L14 23L14 22L13 22L13 23L12 23L12 24L11 24L11 25L12 25L12 24L13 24L13 23L14 23L14 24L15 24L15 25L13 25L13 26L9 26L9 31L11 31L11 30L13 30L13 29L15 29L15 27L16 27L16 28L18 28L18 30L19 30L19 29L20 29L20 31L18 31L18 32L17 32L17 34L18 34L18 35L15 35L15 34L16 34L16 33L15 33L15 32L13 32L13 31L12 31L12 32L11 32L11 33L14 33L14 36L15 36L15 37L14 37L14 39L13 39L13 38L12 38L12 39L10 39L10 41L11 41L11 40L12 40L12 39L13 39L13 40L14 40L14 39L15 39L15 41L16 41L16 40L17 40L17 38L16 38L16 39L15 39L15 37L17 37L17 36L18 36L18 35L19 35L19 34L20 34L20 33L22 33L22 32L23 32L23 31L24 31L24 30L26 30L26 27L25 27L25 29L23 29L23 27L24 27L24 26L21 26L21 25L20 25L20 26L19 26L19 21L20 21L20 22L21 22L21 23L20 23L20 24L21 24L21 23L23 23L23 24L24 24L24 23L23 23L23 22L26 22L26 23L27 23L27 22L28 22L28 23L30 23L30 24L29 24L29 25L28 25L28 24L27 24L27 26L29 26L29 25L31 25L31 23L32 23L32 26L31 26L31 29L32 29L32 30L33 30L33 28L35 28L35 27L36 27L36 28L37 28L37 31L39 31L39 29L41 29L41 30L40 30L40 31L41 31L41 33L39 33L39 34L37 34L37 33L38 33L38 32L35 32L35 31L36 31L36 30L35 30L35 31L33 31L33 32L35 32L35 33L33 33L33 34L32 34L32 32L31 32L31 31L30 31L30 33L31 33L31 34L30 34L30 35L27 35L27 36L26 36L26 37L25 37L25 36L23 36L23 37L25 37L25 38L24 38L24 40L26 40L26 39L27 39L27 37L28 37L28 36L30 36L30 37L31 37L31 39L32 39L32 38L33 38L33 40L31 40L31 41L33 41L33 42L34 42L34 44L36 44L36 46L35 46L35 45L33 45L33 44L32 44L32 45L33 45L33 46L31 46L31 44L30 44L30 46L31 46L31 47L30 47L30 48L33 48L33 46L34 46L34 48L36 48L36 49L35 49L35 52L34 52L34 50L33 50L33 51L32 51L32 53L33 53L33 52L34 52L34 53L35 53L35 54L36 54L36 56L37 56L37 53L38 53L38 51L39 51L39 53L40 53L40 54L41 54L41 52L40 52L40 51L41 51L41 50L42 50L42 51L43 51L43 50L44 50L44 52L42 52L42 53L43 53L43 54L44 54L44 52L45 52L45 53L46 53L46 51L45 51L45 49L46 49L46 50L47 50L47 51L48 51L48 50L47 50L47 49L46 49L46 48L50 48L50 45L49 45L49 44L47 44L47 43L46 43L46 44L45 44L45 43L43 43L43 42L40 42L40 41L42 41L42 40L41 40L41 39L43 39L43 38L42 38L42 37L43 37L43 35L45 35L45 37L44 37L44 39L45 39L45 37L46 37L46 40L47 40L47 37L48 37L48 38L50 38L50 39L51 39L51 38L53 38L53 37L55 37L55 36L51 36L51 38L50 38L50 37L48 37L48 36L50 36L50 35L48 35L48 34L47 34L47 35L45 35L45 34L44 34L44 33L46 33L46 32L47 32L47 30L48 30L48 27L47 27L47 24L46 24L46 22L45 22L45 25L43 25L43 28L42 28L42 27L39 27L39 29L38 29L38 28L37 28L37 27L38 27L38 26L37 26L37 25L38 25L38 24L39 24L39 22L40 22L40 21L39 21L39 22L38 22L38 21L37 21L37 20L38 20L38 19L39 19L39 18L42 18L42 19L41 19L41 23L44 23L44 21L46 21L46 20L47 20L47 21L49 21L49 20L50 20L50 21L51 21L51 20L50 20L50 19L53 19L53 17L52 17L52 15L51 15L51 17L49 17L49 16L48 16L48 17L47 17L47 13L46 13L46 16L45 16L45 14L44 14L44 16L43 16L43 14L42 14L42 12L41 12L41 11L43 11L43 13L44 13L44 11L47 11L47 10L46 10L46 8L47 8L47 7L46 7L46 6L45 6L45 9L44 9L44 8L43 8L43 10L42 10L42 9L38 9L38 10L37 10L37 8L39 8L39 7L40 7L40 6L39 6L39 7L38 7L38 6L37 6L37 5L36 5L36 6L35 6L35 7L34 7L34 4L33 4L33 3ZM27 5L27 8L30 8L30 5ZM12 6L12 7L13 7L13 6ZM20 6L20 7L21 7L21 9L22 9L22 7L23 7L23 6L22 6L22 7L21 7L21 6ZM28 6L28 7L29 7L29 6ZM36 6L36 8L35 8L35 9L36 9L36 8L37 8L37 6ZM33 7L33 8L34 8L34 7ZM15 8L15 9L17 9L17 8ZM19 8L19 10L20 10L20 11L18 11L18 10L17 10L17 12L18 12L18 13L19 13L19 14L18 14L18 15L21 15L21 14L22 14L22 12L21 12L21 14L20 14L20 13L19 13L19 12L20 12L20 11L22 11L22 10L20 10L20 8ZM33 9L33 10L32 10L32 12L34 12L34 11L35 11L35 10L34 10L34 9ZM14 10L14 11L15 11L15 12L16 12L16 10ZM38 10L38 11L36 11L36 12L35 12L35 13L32 13L32 14L31 14L31 16L30 16L30 13L29 13L29 12L28 12L28 13L29 13L29 14L28 14L28 15L29 15L29 17L32 17L32 18L31 18L31 19L30 19L30 18L29 18L29 20L28 20L28 18L27 18L27 19L26 19L26 20L25 20L25 21L26 21L26 22L27 22L27 20L28 20L28 21L29 21L29 22L30 22L30 23L31 23L31 22L30 22L30 20L31 20L31 19L33 19L33 20L36 20L36 19L38 19L38 17L39 17L39 16L37 16L37 18L34 18L34 17L35 17L35 16L34 16L34 17L32 17L32 15L33 15L33 14L35 14L35 15L36 15L36 13L38 13L38 14L37 14L37 15L38 15L38 14L39 14L39 15L40 15L40 13L41 13L41 12L40 12L40 10ZM43 10L43 11L44 11L44 10ZM54 10L54 11L51 11L51 14L52 14L52 12L54 12L54 11L55 11L55 10ZM7 11L7 12L6 12L6 13L7 13L7 12L8 12L8 11ZM30 11L30 12L31 12L31 11ZM38 11L38 12L39 12L39 11ZM48 12L48 13L49 13L49 12ZM26 13L26 14L27 14L27 13ZM16 14L16 15L17 15L17 14ZM41 14L41 15L42 15L42 14ZM25 15L25 16L27 16L27 15ZM42 16L42 18L43 18L43 19L42 19L42 20L43 20L43 21L42 21L42 22L43 22L43 21L44 21L44 20L43 20L43 19L45 19L45 18L44 18L44 17L45 17L45 16L44 16L44 17L43 17L43 16ZM56 16L56 17L57 17L57 16ZM21 17L21 18L22 18L22 19L17 19L17 21L16 21L16 22L17 22L17 23L18 23L18 21L19 21L19 20L22 20L22 19L23 19L23 21L24 21L24 17L23 17L23 18L22 18L22 17ZM25 17L25 18L26 18L26 17ZM46 17L46 18L47 18L47 17ZM48 17L48 20L49 20L49 17ZM56 18L56 21L57 21L57 18ZM21 21L21 22L22 22L22 21ZM33 21L33 22L34 22L34 21ZM35 21L35 23L33 23L33 24L35 24L35 26L36 26L36 25L37 25L37 23L38 23L38 22L37 22L37 21ZM9 22L9 23L10 23L10 22ZM36 22L36 23L35 23L35 24L36 24L36 23L37 23L37 22ZM49 22L49 23L48 23L48 24L49 24L49 23L50 23L50 24L51 24L51 26L53 26L53 27L55 27L55 24L54 24L54 23L55 23L55 22L54 22L54 23L53 23L53 22ZM6 23L6 24L7 24L7 23ZM25 24L25 26L26 26L26 24ZM41 24L41 25L40 25L40 26L42 26L42 24ZM52 24L52 25L53 25L53 24ZM15 25L15 26L14 26L14 27L15 27L15 26L17 26L17 27L19 27L19 26L17 26L17 25ZM32 26L32 27L34 27L34 26ZM5 27L5 30L8 30L8 27ZM12 27L12 29L13 29L13 27ZM27 27L27 30L30 30L30 27ZM45 27L45 28L44 28L44 29L46 29L46 30L47 30L47 29L46 29L46 28L47 28L47 27ZM49 27L49 30L52 30L52 27ZM6 28L6 29L7 29L7 28ZM10 28L10 29L11 29L11 28ZM20 28L20 29L21 29L21 30L22 30L22 31L20 31L20 32L22 32L22 31L23 31L23 29L21 29L21 28ZM28 28L28 29L29 29L29 28ZM41 28L41 29L42 29L42 30L41 30L41 31L42 31L42 32L43 32L43 31L44 31L44 32L46 32L46 31L44 31L44 30L43 30L43 29L42 29L42 28ZM50 28L50 29L51 29L51 28ZM53 28L53 29L56 29L56 28ZM1 29L1 30L2 30L2 29ZM3 30L3 31L4 31L4 30ZM14 30L14 31L15 31L15 30ZM53 30L53 31L54 31L54 30ZM18 32L18 33L19 33L19 32ZM35 33L35 34L34 34L34 35L35 35L35 37L36 37L36 39L37 39L37 38L38 38L38 40L36 40L36 42L37 42L37 41L39 41L39 39L40 39L40 38L39 38L39 37L36 37L36 36L38 36L38 35L37 35L37 34L36 34L36 33ZM42 33L42 34L41 34L41 36L40 36L40 37L42 37L42 34L43 34L43 33ZM35 34L35 35L36 35L36 34ZM30 35L30 36L31 36L31 37L33 37L33 38L34 38L34 42L35 42L35 38L34 38L34 36L33 36L33 35L32 35L32 36L31 36L31 35ZM47 35L47 36L46 36L46 37L47 37L47 36L48 36L48 35ZM20 36L20 37L21 37L21 36ZM22 38L22 40L23 40L23 38ZM25 38L25 39L26 39L26 38ZM6 39L6 40L7 40L7 39ZM48 39L48 41L51 41L51 42L52 42L52 41L51 41L51 40L49 40L49 39ZM56 39L56 44L57 44L57 39ZM1 40L1 41L2 41L2 40ZM4 40L4 41L5 41L5 40ZM43 40L43 41L44 41L44 42L45 42L45 41L44 41L44 40ZM12 41L12 42L11 42L11 43L12 43L12 42L13 42L13 41ZM46 41L46 42L47 42L47 41ZM38 42L38 43L37 43L37 46L39 46L39 47L36 47L36 48L37 48L37 49L38 49L38 48L39 48L39 49L41 49L41 48L39 48L39 47L40 47L40 46L39 46L39 45L42 45L42 46L44 46L44 49L45 49L45 47L47 47L47 44L46 44L46 46L45 46L45 45L44 45L44 44L43 44L43 43L42 43L42 44L41 44L41 43L40 43L40 42ZM48 42L48 43L50 43L50 42ZM19 43L19 44L18 44L18 46L16 46L16 49L17 49L17 50L22 50L22 49L19 49L19 47L18 47L18 46L21 46L21 45L20 45L20 44L22 44L22 43ZM38 43L38 45L39 45L39 43ZM2 44L2 45L4 45L4 44ZM23 45L23 46L24 46L24 45ZM48 45L48 47L49 47L49 45ZM54 45L54 46L55 46L55 45ZM8 46L8 47L9 47L9 46ZM56 46L56 47L57 47L57 46ZM17 47L17 48L18 48L18 47ZM20 47L20 48L22 48L22 47ZM24 47L24 51L23 51L23 52L22 52L22 54L21 54L21 56L22 56L22 55L25 55L25 54L27 54L27 55L28 55L28 54L29 54L29 53L28 53L28 54L27 54L27 53L26 53L26 52L25 52L25 53L24 53L24 54L23 54L23 52L24 52L24 51L26 51L26 48L25 48L25 47ZM42 47L42 50L43 50L43 47ZM6 48L6 49L7 49L7 48ZM14 49L14 50L13 50L13 52L15 52L15 53L14 53L14 54L15 54L15 53L18 53L18 51L15 51L15 49ZM27 49L27 52L30 52L30 49ZM31 49L31 50L32 50L32 49ZM49 49L49 52L52 52L52 49ZM28 50L28 51L29 51L29 50ZM36 50L36 51L38 51L38 50ZM50 50L50 51L51 51L51 50ZM11 51L11 52L12 52L12 51ZM20 51L20 52L21 52L21 51ZM30 53L30 54L31 54L31 53ZM12 54L12 55L13 55L13 54ZM32 54L32 55L34 55L34 56L35 56L35 55L34 55L34 54ZM54 54L54 57L55 57L55 56L57 56L57 54ZM10 55L10 56L11 56L11 55ZM30 55L30 56L31 56L31 55ZM48 55L48 56L50 56L50 55ZM43 56L43 57L44 57L44 56ZM0 0L0 7L7 7L7 0ZM1 1L1 6L6 6L6 1ZM2 2L2 5L5 5L5 2ZM50 0L50 7L57 7L57 0ZM51 1L51 6L56 6L56 1ZM52 2L52 5L55 5L55 2ZM0 50L0 57L7 57L7 50ZM1 51L1 56L6 56L6 51ZM2 52L2 55L5 55L5 52Z" fill="#000000"/></g></g></svg>
