<?xml version="1.0" encoding="UTF-8"?>
<svg xmlns="http://www.w3.org/2000/svg" version="1.1" width="300" height="300" viewBox="0 0 300 300"><rect x="0" y="0" width="300" height="300" fill="#ffffff"/><g transform="scale(5.263)"><g transform="translate(0,0)"><path fill-rule="evenodd" d="M8 0L8 3L9 3L9 4L10 4L10 7L11 7L11 8L12 8L12 9L14 9L14 7L15 7L15 6L16 6L16 7L17 7L17 6L18 6L18 9L16 9L16 10L15 10L15 11L14 11L14 10L13 10L13 11L14 11L14 13L15 13L15 14L16 14L16 15L17 15L17 14L16 14L16 13L15 13L15 12L17 12L17 11L18 11L18 12L20 12L20 14L21 14L21 15L20 15L20 16L21 16L21 17L20 17L20 18L19 18L19 17L18 17L18 16L16 16L16 17L15 17L15 15L14 15L14 14L13 14L13 13L12 13L12 11L11 11L11 12L9 12L9 13L10 13L10 15L9 15L9 14L5 14L5 13L7 13L7 12L8 12L8 11L9 11L9 10L10 10L10 9L9 9L9 5L8 5L8 9L9 9L9 10L5 10L5 12L4 12L4 16L5 16L5 15L8 15L8 16L6 16L6 17L7 17L7 18L6 18L6 19L7 19L7 18L8 18L8 17L9 17L9 21L8 21L8 20L6 20L6 21L5 21L5 22L3 22L3 21L2 21L2 19L3 19L3 20L5 20L5 17L4 17L4 19L3 19L3 16L2 16L2 15L1 15L1 14L3 14L3 13L1 13L1 14L0 14L0 15L1 15L1 16L0 16L0 20L1 20L1 21L0 21L0 27L4 27L4 29L3 29L3 30L4 30L4 31L5 31L5 32L4 32L4 34L3 34L3 35L4 35L4 36L5 36L5 37L3 37L3 38L2 38L2 36L1 36L1 34L2 34L2 33L3 33L3 31L1 31L1 30L2 30L2 28L1 28L1 29L0 29L0 31L1 31L1 32L0 32L0 36L1 36L1 38L2 38L2 39L1 39L1 40L0 40L0 41L1 41L1 42L2 42L2 43L1 43L1 44L2 44L2 43L4 43L4 42L5 42L5 44L6 44L6 45L7 45L7 46L5 46L5 47L3 47L3 46L4 46L4 44L3 44L3 45L0 45L0 48L5 48L5 47L8 47L8 48L6 48L6 49L8 49L8 50L10 50L10 53L9 53L9 52L8 52L8 55L9 55L9 54L10 54L10 55L11 55L11 56L9 56L9 57L14 57L14 56L17 56L17 55L16 55L16 54L19 54L19 53L20 53L20 55L18 55L18 57L20 57L20 56L21 56L21 57L22 57L22 56L21 56L21 54L23 54L23 57L25 57L25 56L24 56L24 53L20 53L20 52L21 52L21 51L22 51L22 50L21 50L21 49L23 49L23 50L24 50L24 49L26 49L26 50L25 50L25 51L23 51L23 52L26 52L26 53L31 53L31 54L32 54L32 56L33 56L33 55L34 55L34 57L39 57L39 56L40 56L40 57L41 57L41 56L42 56L42 54L43 54L43 53L42 53L42 54L41 54L41 53L39 53L39 52L40 52L40 51L42 51L42 52L46 52L46 53L47 53L47 52L46 52L46 51L42 51L42 50L44 50L44 49L43 49L43 48L46 48L46 49L47 49L47 50L48 50L48 53L51 53L51 54L50 54L50 55L49 55L49 54L45 54L45 55L44 55L44 56L43 56L43 57L44 57L44 56L45 56L45 57L46 57L46 56L47 56L47 57L49 57L49 56L50 56L50 57L53 57L53 55L54 55L54 57L56 57L56 56L55 56L55 54L54 54L54 53L53 53L53 52L55 52L55 49L56 49L56 50L57 50L57 49L56 49L56 48L55 48L55 47L54 47L54 46L55 46L55 45L54 45L54 44L56 44L56 42L57 42L57 41L56 41L56 42L52 42L52 41L54 41L54 40L55 40L55 39L56 39L56 38L57 38L57 37L56 37L56 38L55 38L55 37L54 37L54 36L57 36L57 35L54 35L54 36L52 36L52 35L53 35L53 34L51 34L51 35L49 35L49 34L50 34L50 32L51 32L51 33L54 33L54 32L56 32L56 30L57 30L57 29L56 29L56 27L53 27L53 25L54 25L54 24L55 24L55 23L56 23L56 22L57 22L57 20L56 20L56 18L55 18L55 17L54 17L54 18L55 18L55 19L54 19L54 20L53 20L53 16L55 16L55 15L54 15L54 14L57 14L57 13L56 13L56 12L57 12L57 11L56 11L56 12L55 12L55 11L54 11L54 10L57 10L57 8L54 8L54 10L53 10L53 9L52 9L52 8L49 8L49 6L48 6L48 8L47 8L47 9L48 9L48 10L49 10L49 11L48 11L48 12L47 12L47 13L48 13L48 14L49 14L49 13L48 13L48 12L53 12L53 13L51 13L51 14L50 14L50 15L48 15L48 16L46 16L46 15L47 15L47 14L45 14L45 15L42 15L42 16L45 16L45 17L48 17L48 18L50 18L50 19L51 19L51 18L52 18L52 20L49 20L49 19L47 19L47 20L49 20L49 21L47 21L47 22L46 22L46 23L45 23L45 22L44 22L44 23L42 23L42 24L41 24L41 25L42 25L42 26L41 26L41 27L40 27L40 26L37 26L37 25L38 25L38 24L39 24L39 25L40 25L40 24L39 24L39 22L40 22L40 23L41 23L41 22L43 22L43 21L42 21L42 20L46 20L46 18L44 18L44 17L42 17L42 18L41 18L41 17L39 17L39 18L38 18L38 16L41 16L41 15L38 15L38 13L37 13L37 10L39 10L39 11L40 11L40 12L39 12L39 14L40 14L40 12L41 12L41 14L43 14L43 13L44 13L44 12L45 12L45 13L46 13L46 12L45 12L45 10L46 10L46 9L45 9L45 8L46 8L46 7L47 7L47 5L48 5L48 0L46 0L46 1L44 1L44 0L42 0L42 1L43 1L43 2L42 2L42 3L43 3L43 2L44 2L44 3L47 3L47 5L45 5L45 4L44 4L44 7L45 7L45 8L42 8L42 9L40 9L40 8L41 8L41 6L42 6L42 7L43 7L43 6L42 6L42 5L43 5L43 4L42 4L42 5L41 5L41 4L40 4L40 5L41 5L41 6L40 6L40 8L39 8L39 5L38 5L38 3L36 3L36 2L39 2L39 3L41 3L41 2L39 2L39 1L40 1L40 0L39 0L39 1L36 1L36 2L35 2L35 1L33 1L33 0L32 0L32 1L33 1L33 2L32 2L32 3L31 3L31 2L29 2L29 1L27 1L27 0L26 0L26 1L25 1L25 0L22 0L22 1L21 1L21 3L17 3L17 2L16 2L16 0L15 0L15 1L14 1L14 0L11 0L11 1L9 1L9 0ZM17 0L17 1L18 1L18 2L19 2L19 1L18 1L18 0ZM12 1L12 3L14 3L14 1ZM46 1L46 2L47 2L47 1ZM10 2L10 4L11 4L11 2ZM22 2L22 4L23 4L23 8L24 8L24 9L22 9L22 10L19 10L19 9L21 9L21 8L22 8L22 6L21 6L21 5L20 5L20 6L19 6L19 7L20 7L20 6L21 6L21 8L19 8L19 9L18 9L18 11L20 11L20 12L21 12L21 11L22 11L22 12L24 12L24 13L25 13L25 14L23 14L23 13L21 13L21 14L22 14L22 15L21 15L21 16L23 16L23 17L21 17L21 19L22 19L22 18L23 18L23 20L22 20L22 21L23 21L23 22L21 22L21 20L20 20L20 19L19 19L19 18L17 18L17 21L16 21L16 19L14 19L14 18L12 18L12 20L10 20L10 21L12 21L12 22L13 22L13 23L14 23L14 24L13 24L13 25L12 25L12 24L11 24L11 22L10 22L10 23L9 23L9 22L8 22L8 21L6 21L6 22L5 22L5 23L4 23L4 24L5 24L5 25L4 25L4 26L5 26L5 25L6 25L6 26L7 26L7 25L6 25L6 24L8 24L8 23L9 23L9 25L10 25L10 24L11 24L11 26L9 26L9 27L13 27L13 29L12 29L12 28L11 28L11 30L12 30L12 31L11 31L11 32L10 32L10 29L9 29L9 32L8 32L8 31L6 31L6 32L8 32L8 34L9 34L9 35L5 35L5 34L7 34L7 33L5 33L5 34L4 34L4 35L5 35L5 36L8 36L8 37L9 37L9 38L10 38L10 39L9 39L9 40L8 40L8 38L7 38L7 37L5 37L5 39L4 39L4 38L3 38L3 40L4 40L4 41L2 41L2 40L1 40L1 41L2 41L2 42L4 42L4 41L5 41L5 40L8 40L8 41L6 41L6 42L7 42L7 43L6 43L6 44L7 44L7 43L8 43L8 44L11 44L11 45L9 45L9 46L8 46L8 47L9 47L9 46L11 46L11 53L10 53L10 54L11 54L11 53L12 53L12 51L13 51L13 54L14 54L14 55L15 55L15 53L16 53L16 52L15 52L15 50L14 50L14 49L13 49L13 50L12 50L12 48L13 48L13 46L15 46L15 47L14 47L14 48L16 48L16 49L17 49L17 50L18 50L18 49L19 49L19 50L20 50L20 48L21 48L21 46L20 46L20 45L21 45L21 44L22 44L22 45L23 45L23 44L25 44L25 45L26 45L26 46L22 46L22 48L23 48L23 49L24 49L24 47L25 47L25 48L27 48L27 47L29 47L29 48L30 48L30 47L29 47L29 45L30 45L30 43L29 43L29 41L28 41L28 40L30 40L30 41L31 41L31 40L30 40L30 38L32 38L32 40L33 40L33 38L34 38L34 37L35 37L35 39L34 39L34 40L36 40L36 42L34 42L34 41L32 41L32 42L31 42L31 43L32 43L32 44L35 44L35 45L34 45L34 46L33 46L33 48L34 48L34 49L32 49L32 47L31 47L31 49L32 49L32 50L31 50L31 53L33 53L33 52L32 52L32 50L33 50L33 51L34 51L34 50L35 50L35 51L36 51L36 52L37 52L37 53L35 53L35 52L34 52L34 55L35 55L35 56L36 56L36 54L37 54L37 53L38 53L38 52L37 52L37 51L40 51L40 50L42 50L42 47L43 47L43 46L42 46L42 45L41 45L41 44L40 44L40 43L41 43L41 42L42 42L42 43L45 43L45 44L43 44L43 45L46 45L46 46L47 46L47 47L46 47L46 48L47 48L47 49L48 49L48 48L50 48L50 47L51 47L51 46L54 46L54 45L53 45L53 44L54 44L54 43L52 43L52 42L50 42L50 43L49 43L49 41L50 41L50 40L51 40L51 37L52 37L52 39L53 39L53 40L54 40L54 39L55 39L55 38L53 38L53 37L52 37L52 36L49 36L49 35L46 35L46 34L47 34L47 33L48 33L48 34L49 34L49 31L48 31L48 30L47 30L47 28L48 28L48 27L46 27L46 26L48 26L48 25L49 25L49 26L52 26L52 25L53 25L53 24L51 24L51 23L50 23L50 22L52 22L52 23L55 23L55 22L56 22L56 21L55 21L55 20L54 20L54 21L53 21L53 20L52 20L52 21L50 21L50 22L49 22L49 23L48 23L48 22L47 22L47 24L46 24L46 26L45 26L45 24L43 24L43 26L44 26L44 27L43 27L43 28L42 28L42 27L41 27L41 28L39 28L39 27L37 27L37 26L36 26L36 27L37 27L37 28L38 28L38 29L37 29L37 30L39 30L39 31L37 31L37 32L35 32L35 33L32 33L32 34L31 34L31 31L32 31L32 32L34 32L34 31L36 31L36 28L35 28L35 25L37 25L37 24L38 24L38 22L39 22L39 21L40 21L40 22L41 22L41 20L42 20L42 19L44 19L44 18L42 18L42 19L41 19L41 18L40 18L40 19L38 19L38 18L35 18L35 22L34 22L34 21L33 21L33 20L34 20L34 17L33 17L33 18L27 18L27 17L26 17L26 20L28 20L28 19L30 19L30 21L29 21L29 22L30 22L30 24L29 24L29 23L28 23L28 22L27 22L27 21L26 21L26 22L27 22L27 25L26 25L26 24L25 24L25 22L24 22L24 21L25 21L25 19L24 19L24 16L25 16L25 15L27 15L27 16L28 16L28 17L29 17L29 16L28 16L28 14L26 14L26 12L27 12L27 11L26 11L26 3L25 3L25 2L24 2L24 4L23 4L23 2ZM27 2L27 3L29 3L29 2ZM33 2L33 3L35 3L35 4L34 4L34 5L33 5L33 4L31 4L31 7L32 7L32 5L33 5L33 8L32 8L32 9L31 9L31 11L29 11L29 12L28 12L28 13L29 13L29 12L31 12L31 11L33 11L33 10L35 10L35 12L34 12L34 14L33 14L33 16L35 16L35 17L36 17L36 15L37 15L37 16L38 16L38 15L37 15L37 14L35 14L35 13L36 13L36 10L35 10L35 9L38 9L38 8L37 8L37 7L38 7L38 5L37 5L37 4L36 4L36 3L35 3L35 2ZM12 4L12 5L13 5L13 7L12 7L12 6L11 6L11 7L12 7L12 8L13 8L13 7L14 7L14 5L15 5L15 4ZM24 4L24 5L25 5L25 4ZM27 5L27 8L30 8L30 5ZM24 6L24 7L25 7L25 6ZM28 6L28 7L29 7L29 6ZM34 6L34 7L35 7L35 8L36 8L36 7L37 7L37 6L36 6L36 7L35 7L35 6ZM45 6L45 7L46 7L46 6ZM2 8L2 9L1 9L1 11L0 11L0 12L1 12L1 11L2 11L2 12L3 12L3 11L2 11L2 9L5 9L5 8ZM6 8L6 9L7 9L7 8ZM33 8L33 9L32 9L32 10L33 10L33 9L34 9L34 8ZM48 8L48 9L49 9L49 8ZM24 9L24 10L22 10L22 11L25 11L25 12L26 12L26 11L25 11L25 9ZM27 9L27 10L28 10L28 9ZM29 9L29 10L30 10L30 9ZM39 9L39 10L40 10L40 11L43 11L43 12L42 12L42 13L43 13L43 12L44 12L44 11L43 11L43 10L44 10L44 9L43 9L43 10L40 10L40 9ZM50 9L50 11L53 11L53 12L54 12L54 13L53 13L53 14L52 14L52 16L51 16L51 15L50 15L50 18L51 18L51 17L52 17L52 16L53 16L53 14L54 14L54 13L55 13L55 12L54 12L54 11L53 11L53 10L51 10L51 9ZM6 11L6 12L7 12L7 11ZM31 13L31 14L29 14L29 15L31 15L31 14L32 14L32 13ZM11 14L11 16L9 16L9 17L10 17L10 19L11 19L11 16L12 16L12 17L14 17L14 16L13 16L13 15L12 15L12 14ZM18 14L18 15L19 15L19 14ZM34 14L34 15L35 15L35 14ZM23 15L23 16L24 16L24 15ZM56 15L56 16L57 16L57 15ZM1 16L1 19L2 19L2 16ZM30 16L30 17L31 17L31 16ZM48 16L48 17L49 17L49 16ZM13 19L13 20L14 20L14 21L13 21L13 22L14 22L14 21L15 21L15 22L16 22L16 21L15 21L15 20L14 20L14 19ZM31 19L31 20L32 20L32 19ZM36 19L36 21L37 21L37 22L36 22L36 23L35 23L35 24L34 24L34 22L33 22L33 23L32 23L32 22L31 22L31 24L32 24L32 25L33 25L33 26L32 26L32 27L31 27L31 26L30 26L30 25L27 25L27 26L25 26L25 24L24 24L24 23L23 23L23 24L24 24L24 26L25 26L25 27L26 27L26 29L25 29L25 28L24 28L24 27L21 27L21 26L22 26L22 25L20 25L20 24L21 24L21 23L20 23L20 20L19 20L19 22L18 22L18 21L17 21L17 22L18 22L18 23L16 23L16 25L15 25L15 24L14 24L14 26L13 26L13 27L14 27L14 28L15 28L15 31L14 31L14 33L13 33L13 32L12 32L12 33L11 33L11 34L12 34L12 35L9 35L9 37L10 37L10 38L12 38L12 39L10 39L10 40L12 40L12 41L10 41L10 42L9 42L9 41L8 41L8 43L11 43L11 42L12 42L12 43L13 43L13 44L14 44L14 42L15 42L15 41L16 41L16 40L18 40L18 41L17 41L17 42L16 42L16 44L15 44L15 46L18 46L18 43L17 43L17 42L18 42L18 41L19 41L19 44L20 44L20 39L21 39L21 40L22 40L22 41L21 41L21 42L22 42L22 41L23 41L23 37L22 37L22 38L17 38L17 37L19 37L19 36L20 36L20 33L21 33L21 36L25 36L25 37L24 37L24 38L26 38L26 40L25 40L25 42L24 42L24 43L25 43L25 44L26 44L26 43L25 43L25 42L28 42L28 41L27 41L27 40L28 40L28 39L29 39L29 38L27 38L27 36L26 36L26 35L28 35L28 36L29 36L29 35L30 35L30 32L29 32L29 31L31 31L31 30L32 30L32 31L34 31L34 29L35 29L35 28L33 28L33 27L34 27L34 25L35 25L35 24L37 24L37 22L38 22L38 21L37 21L37 20L38 20L38 19ZM23 20L23 21L24 21L24 20ZM52 21L52 22L53 22L53 21ZM54 21L54 22L55 22L55 21ZM2 22L2 23L1 23L1 25L2 25L2 26L3 26L3 25L2 25L2 23L3 23L3 22ZM6 22L6 23L5 23L5 24L6 24L6 23L7 23L7 22ZM49 23L49 24L50 24L50 23ZM47 24L47 25L48 25L48 24ZM16 25L16 26L14 26L14 27L16 27L16 28L19 28L19 29L18 29L18 30L16 30L16 33L17 33L17 31L18 31L18 30L19 30L19 29L20 29L20 28L19 28L19 27L20 27L20 26L18 26L18 27L17 27L17 25ZM56 25L56 26L57 26L57 25ZM5 27L5 30L8 30L8 27ZM27 27L27 30L30 30L30 27ZM44 27L44 28L45 28L45 30L44 30L44 31L45 31L45 30L46 30L46 31L47 31L47 32L48 32L48 31L47 31L47 30L46 30L46 28L45 28L45 27ZM49 27L49 30L52 30L52 27ZM6 28L6 29L7 29L7 28ZM21 28L21 30L20 30L20 32L18 32L18 34L16 34L16 35L14 35L14 34L13 34L13 35L12 35L12 36L13 36L13 37L14 37L14 36L16 36L16 35L18 35L18 36L19 36L19 33L20 33L20 32L22 32L22 34L24 34L24 32L25 32L25 34L27 34L27 33L28 33L28 35L29 35L29 33L28 33L28 31L26 31L26 30L25 30L25 31L24 31L24 32L23 32L23 30L24 30L24 28ZM28 28L28 29L29 29L29 28ZM50 28L50 29L51 29L51 28ZM54 28L54 29L53 29L53 30L56 30L56 29L55 29L55 28ZM13 29L13 30L14 30L14 29ZM32 29L32 30L33 30L33 29ZM41 29L41 31L40 31L40 32L39 32L39 33L40 33L40 32L41 32L41 31L42 31L42 32L43 32L43 33L42 33L42 34L43 34L43 36L45 36L45 35L44 35L44 34L46 34L46 32L45 32L45 33L44 33L44 32L43 32L43 29ZM21 30L21 31L22 31L22 30ZM52 31L52 32L54 32L54 31ZM1 32L1 33L2 33L2 32ZM9 32L9 33L10 33L10 32ZM26 32L26 33L27 33L27 32ZM36 33L36 34L34 34L34 35L36 35L36 34L38 34L38 35L39 35L39 34L38 34L38 33ZM55 33L55 34L57 34L57 33ZM31 35L31 36L30 36L30 37L32 37L32 35ZM40 35L40 36L37 36L37 37L36 37L36 40L37 40L37 41L38 41L38 40L37 40L37 38L38 38L38 39L39 39L39 40L44 40L44 39L40 39L40 36L41 36L41 35ZM33 36L33 37L34 37L34 36ZM47 36L47 38L46 38L46 37L44 37L44 38L46 38L46 40L45 40L45 41L46 41L46 42L45 42L45 43L46 43L46 42L47 42L47 40L50 40L50 39L48 39L48 37L49 37L49 38L50 38L50 37L49 37L49 36ZM38 37L38 38L39 38L39 37ZM42 37L42 38L43 38L43 37ZM6 38L6 39L7 39L7 38ZM14 38L14 39L12 39L12 40L13 40L13 41L15 41L15 40L16 40L16 39L17 39L17 38L16 38L16 39L15 39L15 38ZM14 39L14 40L15 40L15 39ZM18 39L18 40L19 40L19 39ZM39 41L39 43L40 43L40 42L41 42L41 41ZM42 41L42 42L44 42L44 41ZM32 42L32 43L33 43L33 42ZM37 42L37 43L36 43L36 45L35 45L35 49L36 49L36 50L40 50L40 48L41 48L41 47L42 47L42 46L41 46L41 45L40 45L40 44L39 44L39 46L36 46L36 45L38 45L38 42ZM22 43L22 44L23 44L23 43ZM28 43L28 44L27 44L27 46L26 46L26 47L27 47L27 46L28 46L28 45L29 45L29 43ZM47 43L47 44L48 44L48 45L49 45L49 43ZM50 43L50 44L52 44L52 43ZM31 45L31 46L32 46L32 45ZM56 45L56 46L57 46L57 45ZM1 46L1 47L2 47L2 46ZM40 46L40 47L41 47L41 46ZM44 46L44 47L45 47L45 46ZM48 46L48 47L47 47L47 48L48 48L48 47L49 47L49 46ZM16 47L16 48L17 48L17 49L18 49L18 48L19 48L19 47ZM36 47L36 49L38 49L38 48L37 48L37 47ZM52 47L52 48L53 48L53 49L55 49L55 48L53 48L53 47ZM8 48L8 49L9 49L9 48ZM27 49L27 52L30 52L30 49ZM49 49L49 52L52 52L52 49ZM13 50L13 51L14 51L14 50ZM28 50L28 51L29 51L29 50ZM50 50L50 51L51 51L51 50ZM18 51L18 53L19 53L19 51ZM56 52L56 53L57 53L57 52ZM26 54L26 57L30 57L30 56L31 56L31 55L30 55L30 56L29 56L29 55L27 55L27 54ZM38 54L38 55L37 55L37 56L39 56L39 55L40 55L40 56L41 56L41 54ZM52 54L52 55L50 55L50 56L52 56L52 55L53 55L53 54ZM47 55L47 56L48 56L48 55ZM0 0L0 7L7 7L7 0ZM1 1L1 6L6 6L6 1ZM2 2L2 5L5 5L5 2ZM50 0L50 7L57 7L57 0ZM51 1L51 6L56 6L56 1ZM52 2L52 5L55 5L55 2ZM0 50L0 57L7 57L7 50ZM1 51L1 56L6 56L6 51ZM2 52L2 55L5 55L5 52Z" fill="#000000"/></g></g></svg>
